<svg width="120" height="80" viewBox="0 0 120 80" fill="none" xmlns="http://www.w3.org/2000/svg">
<rect x="0.5" y="0.5" width="119" height="79" rx="7.5" fill="#B2FCE5"/>
<path d="M14.9357 39.9618C14.9357 38.1316 13.5653 36.8461 11.8814 36.8461C10.1975 36.8461 8.82699 38.154 8.82699 39.9618C8.82699 41.7481 10.1975 43.0764 11.8814 43.0764C13.5673 43.0764 14.9357 41.7919 14.9357 39.9618ZM14.9603 45.4074V43.9915C14.1296 44.9717 12.8923 45.5804 11.4122 45.5804C8.33534 45.5804 6 43.1843 6 39.9618C6 36.7596 8.42445 34.3207 11.4809 34.3207C12.919 34.3207 14.1307 34.9315 14.9613 35.8883V34.5162H17.7238V45.4074H14.9603ZM31.1397 42.9889C30.1728 42.9889 29.9044 42.6408 29.9044 41.7267V36.8909H31.6795V34.5152H29.9044V31.8585H27.0734V34.5152H23.4269V33.8535C23.4269 32.9375 23.7875 32.5883 24.7759 32.5883H25.3966V30.4763H24.0343C21.699 30.4763 20.5989 31.2173 20.5989 33.482V34.5141H19.0267V36.8909H20.5989V45.4063H23.43V36.8909H27.0764V42.2275C27.0764 44.4495 27.9512 45.4084 30.2414 45.4084H31.702V42.9899H31.1387L31.1397 42.9889ZM41.2913 38.9805C41.0895 37.5657 39.8983 36.7158 38.5063 36.7158C37.1133 36.7158 35.9681 37.5433 35.6772 38.9805H41.2902H41.2913ZM35.6537 40.6804C35.8565 42.2917 37.0467 43.2077 38.5513 43.2077C39.7415 43.2077 40.6634 42.6622 41.2011 41.7909H44.0998C43.4248 44.0994 41.2913 45.5804 38.4837 45.5804C35.0934 45.5804 32.713 43.2729 32.713 39.9831C32.713 36.6944 35.2286 34.3197 38.5534 34.3197C41.8997 34.3197 44.3241 36.7158 44.3241 39.9831C44.3241 40.2234 44.3026 40.4615 44.2575 40.6804H35.6537ZM62.3216 39.9618C62.3216 38.1968 60.9511 36.8461 59.2672 36.8461C57.5833 36.8461 56.2128 38.154 56.2128 39.9618C56.2128 41.7481 57.5833 43.0764 59.2672 43.0764C60.9511 43.0764 62.3216 41.7267 62.3216 39.9618ZM53.4268 34.5162H56.1893V35.932C57.0189 34.9294 58.2542 34.3207 59.7374 34.3207C62.7692 34.3207 65.1486 36.7392 65.1486 39.9394C65.1486 43.1426 62.7241 45.5824 59.6698 45.5824C58.2542 45.5824 57.0865 45.0369 56.2794 44.1228V49.889H53.4268V34.5162ZM75.1045 39.9618C75.1045 38.1316 73.7361 36.8461 72.0501 36.8461C70.3662 36.8461 68.9957 38.154 68.9957 39.9618C68.9957 41.7481 70.3662 43.0764 72.0501 43.0764C73.7361 43.0764 75.1045 41.7919 75.1045 39.9618ZM75.1291 45.4074V43.9915C74.2984 44.9717 73.0611 45.5804 71.581 45.5804C68.5041 45.5804 66.1688 43.1843 66.1688 39.9618C66.1688 36.7596 68.5932 34.3207 71.6486 34.3207C73.0857 34.3207 74.2984 34.9315 75.1291 35.8883V34.5162H77.8905V45.4074H75.1291ZM48.4489 35.5839C48.4489 35.5839 49.1515 34.3218 50.8733 34.3218C51.6098 34.3218 52.086 34.566 52.086 34.566V37.3448C52.086 37.3448 51.0474 36.7229 50.0928 36.8481C49.1382 36.9733 48.5349 37.8232 48.538 38.9612V45.4094H45.6864V34.5182H48.4489V35.5839ZM90.7902 34.5162L83.8169 49.8544H80.8763L83.6141 43.9243L78.9844 34.5162H82.3174L85.0256 40.8025L87.8044 34.5162H90.7902ZM113.051 34.2688L106.137 30.3999C104.109 29.264 101.572 30.6829 101.572 32.9568V33.3538C101.572 33.7121 101.769 34.0439 102.089 34.222L103.395 34.9528C103.778 35.1686 104.255 34.8999 104.255 34.4714V33.4841C104.255 32.9904 104.806 32.681 105.247 32.9283L111.235 36.2812C111.675 36.5275 111.675 37.1443 111.235 37.3906L105.247 40.7425C104.806 40.9888 104.256 40.6814 104.256 40.1867V39.6615C104.256 37.3886 101.719 35.9666 99.688 37.1046L92.7742 40.9745C92.3132 41.2261 91.9288 41.5962 91.661 42.046C91.3932 42.4958 91.2519 43.0088 91.2519 43.5314C91.2519 44.054 91.3932 44.5671 91.661 45.0169C91.9288 45.4667 92.3132 45.8367 92.7742 46.0883L99.688 49.9572C101.717 51.0932 104.256 49.6743 104.256 47.4003V47.0034C104.255 46.826 104.206 46.6521 104.115 46.4995C104.024 46.347 103.894 46.2212 103.738 46.1351L102.433 45.4023C102.05 45.1875 101.572 45.4562 101.572 45.8847V46.8721C101.572 47.3657 101.021 47.6741 100.581 47.4268L94.5923 44.075C94.4923 44.0202 94.409 43.9398 94.351 43.8421C94.293 43.7445 94.2624 43.6331 94.2624 43.5197C94.2624 43.4063 94.293 43.295 94.351 43.1973C94.409 43.0997 94.4923 43.0193 94.5923 42.9645L100.581 39.6116C101.022 39.3643 101.572 39.6727 101.572 40.1674V40.6926C101.572 42.9655 104.108 44.3875 106.137 43.2495L113.051 39.3795C113.511 39.1281 113.895 38.7583 114.163 38.3089C114.43 37.8594 114.571 37.3469 114.571 36.8247C114.571 36.3025 114.43 35.7899 114.163 35.3405C113.895 34.8911 113.511 34.5213 113.051 34.2698V34.2688Z" fill="black"/>
<rect x="0.5" y="0.5" width="119" height="79" rx="7.5" stroke="#CCCCCC"/>
</svg>
