<svg width="109" height="100" viewBox="0 0 109 100" fill="none" xmlns="http://www.w3.org/2000/svg">
<rect x="0.473145" width="107.87" height="100" rx="20" fill="#FFF8F6"/>
<g clip-path="url(#clip0_150_217)">
<path d="M58.0977 49.2092L55.4963 45.3502C55.0919 44.7508 54.0236 44.7508 53.6192 45.3502L51.0178 49.2092C50.2005 50.4201 50.1593 51.8885 50.9053 53.1373C51.6524 54.3862 53.017 55.132 54.5577 55.132C56.0985 55.132 57.4629 54.3862 58.2101 53.1373C58.9562 51.8885 58.9152 50.4201 58.0977 49.2092ZM56.2738 52.1421C55.9224 52.7295 55.2812 53.0793 54.558 53.0793C53.8347 53.0793 53.1935 52.7295 52.8422 52.1421C52.4919 51.5558 52.5113 50.8662 52.8952 50.2978L54.5581 47.831L56.2211 50.2978C56.6046 50.866 56.6241 51.5556 56.2738 52.1421Z" fill="#454545"/>
<path d="M72.3113 23.8633C72.3113 22.6203 71.7892 21.4506 70.8409 20.5716C68.8828 18.7584 65.6986 18.7574 63.7427 20.5687L60.097 23.9187L58.662 22.5884L57.0965 24.0397L59.3108 26.0925L59.6352 26.3932L53.775 31.8258C53.5674 32.0182 53.4506 32.2788 53.4506 32.5514V35.6306C53.4506 36.1979 53.9457 36.657 54.5577 36.657H57.8792C58.1733 36.657 58.4544 36.5487 58.662 36.3563L64.5223 30.9236L64.8467 31.2243L67.061 33.2771L68.6267 31.8256L67.1986 30.5017L70.841 27.1548C71.7892 26.2768 72.3113 25.1071 72.3113 23.8633ZM57.4209 34.6042H55.6649V32.9764L61.2007 27.8444L62.9567 29.4722L57.4209 34.6042ZM69.2785 25.7005L65.6327 29.0503L65.3052 28.7466L61.9837 25.6674L61.6626 25.3698L65.3052 22.0229C66.3993 21.0086 68.1812 21.0086 69.2755 22.0229C69.8052 22.5151 70.0973 23.1687 70.0973 23.8633C70.097 24.5588 69.8051 25.2123 69.2785 25.7005Z" fill="#454545"/>
<path d="M87.7664 49.9228C87.7188 49.5249 87.4258 49.1891 87.016 49.0629C86.5858 48.9296 76.3865 45.8654 69.349 51.3001C66.303 53.6537 65.1892 56.412 64.9088 58.8208L63.4152 55.926V44.6927C64.7041 44.2687 65.6296 43.1271 65.6296 41.7889C65.6296 40.091 64.1396 38.7098 62.308 38.7098H46.8077C44.9761 38.7098 43.4862 40.091 43.4862 41.7889C43.4862 43.1271 44.4118 44.2687 45.7005 44.6927V55.926L45.1608 56.9722C45.2384 53.96 44.5961 50.4962 42.1725 47.351C36.4086 39.8695 24.1756 38.7579 23.6577 38.7139C23.115 38.6658 22.6306 38.9865 22.489 39.4666C22.3495 39.9417 19.1059 51.187 22.5398 58.6152C26.1078 66.3332 37.4682 66.4225 37.9505 66.4225C38.3495 66.4225 38.717 66.224 38.9138 65.9022C39.1106 65.5794 39.1052 65.1845 38.8997 64.8678L35.5782 59.7358C35.4495 59.5373 35.2517 59.384 35.0181 59.3028L30.0272 57.5678L32.5962 57.1708C32.9346 57.1188 33.2277 56.9243 33.3898 56.6446C33.5518 56.3649 33.565 56.0322 33.4266 55.7415L30.8435 50.355L32.8298 51.8283C33.2699 52.1531 33.9056 52.123 34.3046 51.7521L35.7361 50.425V56.1584C35.7361 56.3509 35.7945 56.5394 35.9048 56.7027L41.227 64.5969L36.6617 73.4457C35.8367 75.0455 35.9535 76.8958 36.9731 78.3963C37.9927 79.8958 39.7433 80.7919 41.6559 80.7919H67.4603C69.3729 80.7919 71.1235 79.8958 72.143 78.3963C73.1626 76.8958 73.2794 75.0455 72.4544 73.4457L67.9448 64.7048L71.9453 61.0288C72.0686 60.9155 72.1616 60.7772 72.2156 60.6249L73.38 57.3874L73.4373 57.5457C73.5346 57.8173 73.7509 58.0399 74.0342 58.1572C74.3164 58.2745 74.6408 58.2776 74.923 58.1643L77.9926 56.9454L70.3462 64.7416C70.1236 64.9691 70.0229 65.2769 70.0706 65.5806C70.1182 65.8843 70.3096 66.1519 70.5927 66.3104C71.5831 66.8656 73.3119 67.4411 75.3469 67.4411C77.3514 67.4411 79.6545 66.8818 81.8396 65.1948C88.8585 59.7708 87.814 50.3228 87.7664 49.9228ZM37.9503 55.8636V47.9472C37.9503 47.5323 37.6811 47.1574 37.2669 46.9989C36.8528 46.8385 36.377 46.9277 36.0603 47.2214L33.4393 49.6511L28.6777 46.1189C28.2787 45.8242 27.7143 45.8192 27.3088 46.1079C26.9055 46.3976 26.766 46.9047 26.9736 47.3377L30.8217 55.3635L25.5896 56.1724C25.0955 56.2486 24.7181 56.6235 24.6696 57.0855C24.621 57.5475 24.914 57.9826 25.382 58.146L33.8783 61.099L35.8969 64.2183C32.717 63.8364 26.7433 62.4994 24.5743 57.8073C21.961 52.1541 23.7267 43.5992 24.3982 40.8729C27.2829 41.2799 36.0569 42.9457 40.371 48.5438C43.9996 53.2537 42.9832 59.0322 42.0848 61.9962L37.9503 55.8636ZM70.2701 77.3016C69.6581 78.2018 68.6071 78.7389 67.46 78.7389H41.6557C40.5086 78.7389 39.4576 78.2016 38.8456 77.3016C38.5038 76.7989 38.35 76.2308 38.3506 75.6598H51.6235C51.9748 75.6598 52.3057 75.5044 52.5144 75.2428C52.7231 74.9802 52.7847 74.6413 52.6809 74.3297C52.5176 73.8405 52.5944 73.3254 52.895 72.8782L54.558 70.4114L56.2165 72.8722C56.4165 73.1719 56.5171 73.4956 56.5171 73.8324C56.5171 74.0068 56.4911 74.1662 56.4383 74.3206C56.3302 74.6323 56.3895 74.9731 56.5982 75.2387C56.8069 75.5034 57.1388 75.6596 57.4924 75.6596H70.7653C70.7657 76.2308 70.612 76.7989 70.2701 77.3016ZM70.0822 73.607H58.7237C58.6826 72.9715 58.4696 72.349 58.0978 71.7898L55.665 68.181V67.4486H56.7722C59.8245 67.4486 62.308 65.1463 62.308 62.3167C62.308 61.7493 61.8129 61.2903 61.2009 61.2903H58.9865C57.7354 61.2903 56.5931 61.6916 55.665 62.343V62.3167H55.1957C54.3391 60.5074 52.3933 59.2375 50.1292 59.2375H47.9148C47.3029 59.2375 46.8077 59.6965 46.8077 60.2639C46.8077 63.0935 49.2912 65.3958 52.3435 65.3958H53.4507V68.181L51.018 71.7898C50.6428 72.3471 50.4309 72.9725 50.392 73.607H39.0336L47.8068 56.6013C47.8782 56.463 47.9148 56.3116 47.9148 56.1583V44.868H51.2364V42.8152H46.8077C46.1968 42.8152 45.7005 42.3551 45.7005 41.7888C45.7005 41.2225 46.1968 40.7624 46.8077 40.7624H62.308C62.9189 40.7624 63.4152 41.2225 63.4152 41.7888C63.4152 42.3551 62.9189 42.8152 62.308 42.8152H57.8794V44.868H61.2009V56.1583C61.2009 56.3116 61.2377 56.463 61.309 56.6013L70.0822 73.607ZM55.8542 65.3958C56.3116 64.201 57.5431 63.3431 58.9865 63.3431H59.9045C59.4471 64.5379 58.2157 65.3958 56.7722 65.3958H55.8542ZM53.2615 63.3431H52.3435C50.9001 63.3431 49.6686 62.485 49.2112 61.2903H50.1292C51.5727 61.2903 52.8041 62.1483 53.2615 63.3431ZM80.4217 63.6167C77.5208 65.858 74.6361 65.5302 73.0272 65.0591L83.0567 54.8322C83.407 54.4744 83.4416 53.9391 83.1389 53.5463C82.8361 53.1514 82.2761 53.0081 81.8014 53.1985L75.1573 55.8376L74.4296 53.8169C74.2793 53.3978 73.8565 53.1152 73.3797 53.1152C72.903 53.1152 72.4802 53.3978 72.3299 53.8169L70.1988 59.7436L67.2741 62.4309C66.7821 60.2337 66.5951 56.1001 70.7675 52.8776C75.8741 48.9303 83.3097 50.2766 85.6116 50.8258C85.7003 52.9639 85.5359 59.6665 80.4217 63.6167Z" fill="#454545"/>
<path d="M45.8153 63.9107L43.6011 68.016L45.5816 68.934L47.7958 64.8287L45.8153 63.9107Z" fill="#454545"/>
<path d="M42.4938 70.0708L41.3867 72.1234L43.3672 73.0414L44.4743 70.9888L42.4938 70.0708Z" fill="#454545"/>
<path d="M43.4861 19.2081C39.8229 19.2081 36.8431 21.9705 36.8431 25.3665C36.8431 28.7624 39.8229 31.5248 43.4861 31.5248C47.1494 31.5248 50.1292 28.7624 50.1292 25.3665C50.1292 21.9705 47.1494 19.2081 43.4861 19.2081ZM43.4861 29.4721C41.0437 29.4721 39.0575 27.6307 39.0575 25.3665C39.0575 23.1023 41.0437 21.2609 43.4861 21.2609C45.9286 21.2609 47.9148 23.1023 47.9148 25.3665C47.9148 27.6307 45.9287 29.4721 43.4861 29.4721Z" fill="#454545"/>
<path d="M75.594 35.6305C73.1515 35.6305 71.1653 37.4718 71.1653 39.7361C71.1653 42.0003 73.1515 43.8416 75.594 43.8416C78.0364 43.8416 80.0226 42.0003 80.0226 39.7361C80.0226 37.4718 78.0365 35.6305 75.594 35.6305ZM75.594 41.7888C74.3733 41.7888 73.3796 40.8677 73.3796 39.7361C73.3796 38.6045 74.3733 37.6833 75.594 37.6833C76.8146 37.6833 77.8083 38.6045 77.8083 39.7361C77.8083 40.8677 76.8146 41.7888 75.594 41.7888Z" fill="#454545"/>
<path d="M85.5586 21.2609V19.2081H83.3442V21.2609H81.1299V23.3137H83.3442V25.3665H85.5586V23.3137H87.7729V21.2609H85.5586Z" fill="#454545"/>
<path d="M42.3789 24.3402H40.1646V26.393H42.3789V24.3402Z" fill="#454545"/>
<path d="M29.0929 27.4194V25.3666H26.8785V27.4194H24.6642V29.4721H26.8785V31.5249H29.0929V29.4721H31.3072V27.4194H29.0929Z" fill="#454545"/>
</g>
<defs>
<clipPath id="clip0_150_217">
<rect width="66.8794" height="62" fill="white" transform="translate(20.9683 19)"/>
</clipPath>
</defs>
</svg>
