<svg width="108" height="100" viewBox="0 0 108 100" fill="none" xmlns="http://www.w3.org/2000/svg">
<rect x="0.0256348" width="107.87" height="100" rx="20" fill="#F6623E"/>
<g clip-path="url(#clip0_150_188)">
<path d="M49.4753 70.6667C49.1898 65.4996 46.1146 60.814 41.296 58.2037L33.5959 50.2728C32.5603 49.185 30.954 48.7275 29.4382 49.0886V35.5334C29.4382 33.2506 27.442 31.4 24.9796 31.4C22.5172 31.4 20.521 33.2506 20.521 35.5334V55.0913C20.5221 56.6724 20.9567 58.2273 21.7839 59.61L31.6676 76.101V79.9667C31.6676 80.5373 32.1666 81 32.7822 81H48.3874C49.003 81 49.5021 80.5373 49.5021 79.9667V70.6667H49.4753ZM47.2727 78.9334H33.8969V75.8334C33.8969 75.6576 33.8485 75.4847 33.7564 75.3312L23.7323 58.6046C23.0894 57.5294 22.7516 56.3205 22.7503 55.0913V35.5334C22.7503 34.3919 23.7483 33.4667 24.9796 33.4667C26.2109 33.4667 27.2089 34.3919 27.2089 35.5334V50.3648C25.8142 51.8674 25.8463 54.098 27.2836 55.5656L36.416 64.88L38.0657 63.4892L28.9333 54.1757C28.2054 53.4335 28.2348 52.2921 29.0002 51.5831C29.7908 50.8496 31.0732 50.849 31.8644 51.5821C31.8902 51.606 31.9152 51.6304 31.9395 51.6554L39.7566 59.7072C39.8561 59.7999 39.9685 59.8799 40.091 59.9448C44.5272 62.3012 47.2662 66.6761 47.2727 71.4159V78.9334Z" fill="white"/>
<path d="M82.9418 31.4C80.4793 31.4 78.4831 33.2506 78.4831 35.5334V49.0886C78.1218 49.0039 77.7501 48.9629 77.3774 48.9667C76.2089 48.9908 75.1038 49.4635 74.3255 50.2718L66.6276 58.2006C61.8024 60.8065 58.7246 65.4963 58.4461 70.6667H58.4193V79.9667C58.4193 80.5373 58.9184 81 59.534 81H75.1392C75.7547 81 76.2538 80.5373 76.2538 79.9667V76.0989L86.0149 59.6979C86.9215 58.2686 87.3998 56.6409 87.4004 54.9828V35.5334C87.4004 33.2506 85.4042 31.4 82.9418 31.4ZM85.1711 54.9828C85.1694 56.2818 84.7922 57.5568 84.0787 58.6749L74.1583 75.3343C74.0689 75.4876 74.023 75.6592 74.0245 75.8334V78.9334H60.6486V71.4159C60.6623 66.6576 63.4245 62.2707 67.8872 59.92C67.991 59.8654 68.0848 59.7956 68.1648 59.7134L75.9818 51.6534C76.7326 50.8829 78.0148 50.8226 78.8459 51.5185C79.6771 52.2145 79.7421 53.4032 78.9914 54.1737L69.8557 63.4871L71.5054 64.88L80.6378 55.5676C82.0765 54.0996 82.1084 51.8676 80.7124 50.3648V35.5334C80.7124 34.3919 81.7105 33.4667 82.9418 33.4667C84.173 33.4667 85.1711 34.3919 85.1711 35.5334V54.9828Z" fill="white"/>
<path d="M67.3366 44.8333H65.1073C61.1088 44.8373 57.3639 46.6503 55.0754 49.69V42.7667H56.1901C62.9584 42.7593 68.4433 37.6745 68.4513 31.4C68.4513 30.8293 67.9522 30.3667 67.3366 30.3667H65.1073C61.1088 30.3707 57.3639 32.1837 55.0754 35.2233V28.3H56.1901C61.1127 28.2948 65.1017 24.5968 65.1073 20.0333C65.1073 19.4627 64.6082 19 63.9927 19H61.7633C58.5172 19.0018 55.5287 20.6389 53.9607 23.2739C52.3928 20.6389 49.4043 19.0018 46.1582 19H43.9288C43.3133 19 42.8142 19.4627 42.8142 20.0333C42.8198 24.5968 46.8088 28.2948 51.7314 28.3H52.8461V35.2233C50.5576 32.1837 46.8127 30.3707 42.8142 30.3667H40.5849C39.9693 30.3667 39.4702 30.8293 39.4702 31.4C39.4782 37.6745 44.9631 42.7593 51.7314 42.7667H52.8461V49.69C50.5576 46.6503 46.8127 44.8373 42.8142 44.8333H40.5849C39.9693 44.8333 39.4702 45.296 39.4702 45.8667C39.4782 52.1412 44.9631 57.226 51.7314 57.2333H52.8461V65.5H55.0754V57.2333H56.1901C62.9584 57.226 68.4433 52.1412 68.4513 45.8667C68.4513 45.296 67.9522 44.8333 67.3366 44.8333ZM65.1073 32.4333H66.1607C65.5866 37.1377 61.297 40.6943 56.1901 40.7H55.1367C55.7108 35.9956 60.0004 32.439 65.1073 32.4333ZM61.7633 21.0667H62.7855C62.2372 24.0478 59.4522 26.2296 56.1901 26.2333H55.1679C55.7162 23.2522 58.5012 21.0704 61.7633 21.0667ZM51.7314 26.2333C48.4693 26.2296 45.6843 24.0478 45.136 21.0667H46.1582C49.4203 21.0704 52.2053 23.2522 52.7536 26.2333H51.7314ZM51.7314 40.7C46.6245 40.6943 42.3349 37.1377 41.7608 32.4333H42.8142C47.9211 32.439 52.2107 35.9956 52.7848 40.7H51.7314ZM51.7314 55.1667C46.6245 55.161 42.3349 51.6044 41.7608 46.9H42.8142C47.9211 46.9057 52.2107 50.4623 52.7848 55.1667H51.7314ZM56.1901 55.1667H55.1367C55.7108 50.4623 60.0004 46.9057 65.1073 46.9H66.1607C65.5866 51.6044 61.297 55.161 56.1901 55.1667Z" fill="white"/>
</g>
<defs>
<clipPath id="clip0_150_188">
<rect width="66.8794" height="62" fill="white" transform="translate(20.521 19)"/>
</clipPath>
</defs>
</svg>
