<svg width="109" height="100" viewBox="0 0 109 100" fill="none" xmlns="http://www.w3.org/2000/svg">
<rect x="0.578247" width="107.87" height="100" rx="20" fill="#FFF8F6"/>
<g clip-path="url(#clip0_150_204)">
<path d="M53.3846 42.6402C53.8204 43.0238 54.5449 42.9463 54.8761 42.4832L61.3965 33.3605C61.6956 32.9423 61.5721 32.3785 61.121 32.1013C60.6705 31.8246 60.0622 31.939 59.7632 32.3567L53.8872 40.5778L50.6221 37.7038C50.2298 37.3584 49.6098 37.3736 49.2368 37.7373C48.8643 38.1011 48.8807 38.6758 49.273 39.0211C49.2725 39.0211 53.3811 42.6374 53.3846 42.6402V42.6402Z" fill="#454545"/>
<path d="M54.053 56.4927C54.2402 56.5722 54.4474 56.6143 54.6535 56.6143H54.6617C54.8714 56.6133 55.0816 56.5689 55.2694 56.4856C70.1666 49.9177 72.6913 35.7469 73.1098 31.5602C73.2057 30.6042 72.625 29.714 71.6652 29.345C68.6997 28.2036 66.6837 25.6512 66.4041 22.6839C66.3178 21.7705 65.4759 21.0586 64.484 21.0586H64.4723L44.4021 21.1679C43.3903 21.1731 42.5683 21.8859 42.4907 22.8258C42.2438 25.794 40.2574 28.3649 37.3066 29.5352C36.3565 29.9117 35.7901 30.8066 35.8983 31.7621C36.3698 35.9441 39.0736 50.087 54.053 56.4927V56.4927ZM38.0771 31.2049C41.6952 29.7707 44.1327 26.6218 44.4424 22.9838L64.4549 22.875C64.8105 26.505 67.2827 29.625 70.9141 31.0223C71.0764 31.0853 71.1749 31.2338 71.1591 31.3927C70.7662 35.3164 68.4155 48.5464 54.65 54.7463C40.8054 48.6973 38.2893 35.4929 37.8464 31.5734C37.8286 31.4149 37.9214 31.2669 38.0771 31.2049Z" fill="#454545"/>
<path d="M40.5233 36.2397C40.6416 36.6437 41.1942 37.0136 41.7259 36.8778C42.2474 36.7444 42.5561 36.2473 42.4142 35.7634C42.1647 34.911 41.955 34.0468 41.7902 33.1906C44.4517 31.5828 46.4268 29.1832 47.3958 26.3805L61.544 26.3034C62.5482 29.0947 64.5534 31.4735 67.2353 33.052C67.0817 33.9106 66.8827 34.7776 66.6434 35.6333C66.5077 36.1191 66.8225 36.6148 67.346 36.7407C67.8706 36.8665 68.4048 36.5746 68.5405 36.0888C68.8212 35.0841 69.0498 34.0643 69.2192 33.0577C69.3141 32.4953 69.0365 31.9423 68.513 31.649C66.0148 30.2503 64.1682 28.056 63.3135 25.4704C63.1212 24.8891 62.5298 24.4851 61.8736 24.4851H61.8644L47.0519 24.5655C46.3916 24.5693 45.8008 24.9813 45.6155 25.5669C44.794 28.1614 42.975 30.3757 40.4947 31.8018C39.9747 32.1003 39.7048 32.6561 39.8064 33.2181C39.989 34.2223 40.2299 35.2388 40.5233 36.2397V36.2397Z" fill="#454545"/>
<path d="M66.5602 38.9328C66.0602 38.7407 65.4877 38.9621 65.2811 39.4256C63.0171 44.5125 59.4331 48.38 54.6255 50.9253C49.7807 48.4291 46.1447 44.5944 43.8169 39.5236C43.6046 39.0624 43.0291 38.8476 42.5316 39.0439C42.0336 39.2402 41.8019 39.7738 42.0137 40.235C44.5542 45.7684 48.5566 49.94 53.9096 52.6329C54.1352 52.7469 54.3821 52.8032 54.6286 52.8032C54.8812 52.8032 55.1332 52.7441 55.3628 52.6253C60.6755 49.8775 64.6218 45.6695 67.0924 40.1181C67.2991 39.6546 67.0608 39.1239 66.5602 38.9328Z" fill="#454545"/>
<path d="M27.3593 67.5311C25.4484 67.5311 23.8932 68.9724 23.8932 70.7444C23.8932 72.5163 25.4484 73.9576 27.3593 73.9576C29.2707 73.9576 30.8259 72.5163 30.8259 70.7444C30.8259 68.9724 29.2712 67.5311 27.3593 67.5311V67.5311ZM27.3593 72.1412C26.5286 72.1412 25.8525 71.5149 25.8525 70.7444C25.8525 69.9743 26.5286 69.3475 27.3593 69.3475C28.1905 69.3475 28.8666 69.9743 28.8666 70.7444C28.8666 71.5149 28.1905 72.1412 27.3593 72.1412Z" fill="#454545"/>
<path d="M87.2503 58.6397C85.9946 56.9292 83.4663 56.4761 81.6146 57.6293L68.8073 65.5756L66.0734 65.4332L66.0035 64.7843C65.7311 62.2427 63.6355 60.2177 60.9077 59.8601C60.8903 59.8577 60.8735 59.8558 60.8561 59.8544L47.0559 58.7334C46.5891 58.6657 45.0945 58.2679 40.9881 56.0844C38.8537 54.9496 36.4489 54.3092 34.0058 54.2221V51.8461C34.0058 50.6537 32.9598 49.684 31.6735 49.684H23.4059C22.1201 49.684 21.0735 50.6541 21.0735 51.8461V75.247C21.0735 76.4391 22.1201 77.4092 23.4059 77.4092H31.6735C32.9593 77.4092 34.0058 76.4391 34.0058 75.247V74.6023L46.0691 78.8373C46.0957 78.8467 47.0753 79.1864 48.8765 79.0289C48.8816 79.0284 68.9206 76.3501 68.9206 76.3501C68.9257 76.3497 68.9303 76.3487 68.9354 76.3478C70.6478 76.0947 72.2628 75.4235 73.6062 74.4079C73.6185 74.3984 73.6302 74.389 73.642 74.3795L86.5875 63.5856C88.1131 62.3297 88.3984 60.2035 87.2503 58.6397V58.6397ZM85.2818 62.2314L72.35 73.0139C71.2795 73.8185 69.9947 74.3507 68.6334 74.5531L48.604 77.23C48.5994 77.2304 48.5928 77.2314 48.5867 77.2323C48.5836 77.2328 48.5801 77.2333 48.577 77.2337C47.978 77.3212 47.3539 77.2844 46.7217 77.124L34.0058 72.6601V62.2881C34.0058 61.7862 33.567 61.3799 33.0261 61.3799C32.4848 61.3799 32.0465 61.7862 32.0465 62.2881V75.247C32.0465 75.4377 31.8791 75.5928 31.6735 75.5928H23.4059C23.2003 75.5928 23.0329 75.4377 23.0329 75.247V51.8461C23.0329 51.6555 23.2003 51.5004 23.4059 51.5004H31.6735C31.8791 51.5004 32.0465 51.6555 32.0465 51.8461V58.1856C32.0465 58.6875 32.4853 59.0938 33.0261 59.0938C33.5675 59.0938 34.0058 58.687 34.0058 58.1856V56.0404C36.1075 56.1265 38.1751 56.6828 40.013 57.6605C44.966 60.2939 46.3492 60.4755 46.8039 60.5351C46.8212 60.5375 46.8381 60.5389 46.8554 60.5408L60.6571 61.6618C62.4767 61.9111 63.8717 63.2659 64.0539 64.964L64.1059 65.4479L45.6283 66.5056C45.6155 66.5046 45.6028 66.5037 45.5915 66.5027C44.9925 66.4526 44.4516 66.1901 44.0674 65.7634C43.721 65.3779 43.103 65.3259 42.6877 65.6475C42.2718 65.9687 42.2157 66.5415 42.5627 66.9266C43.2816 67.726 44.296 68.2042 45.417 68.3121C46.0222 68.3707 65.1836 67.2061 65.1836 67.2061L69.0247 67.4062C69.237 67.4176 69.4477 67.3637 69.6243 67.2539L82.706 59.1378C83.6668 58.5394 84.9787 58.774 85.6303 59.6614C86.2257 60.4731 86.0777 61.5762 85.2818 62.2314V62.2314Z" fill="#454545"/>
</g>
<defs>
<clipPath id="clip0_150_204">
<rect width="66.8794" height="62" fill="white" transform="translate(21.0735 19)"/>
</clipPath>
</defs>
</svg>
